<svg width="603" height="286" xmlns="http://www.w3.org/2000/svg" xmlns:xlink="http://www.w3.org/1999/xlink" overflow="hidden"><defs><clipPath id="clip0"><rect x="0" y="0" width="603" height="286"/></clipPath></defs><g clip-path="url(#clip0)"><path d="M127.5 52.5 575.5 52.5 575.5 250.5 127.5 250.5Z" stroke="#979797" stroke-opacity="0.35" fill="#F2F2F2" fill-rule="evenodd"/><path d="M126 72 157 72 157 100 126 100Z" stroke="#E8C48E" stroke-width="2" fill="#FFF9EB" fill-rule="evenodd"/><path d="M157 72 185 72 185 100 157 100Z" stroke="#E8C48E" stroke-width="2" fill="#FFF9EB" fill-rule="evenodd"/><path d="M185 72 213 72 213 100 185 100Z" stroke="#E8C48E" stroke-width="2" fill="#FFF9EB" fill-rule="evenodd"/><path d="M213 72 241 72 241 100 213 100Z" stroke="#E8C48E" stroke-width="2" fill="#FFF9EB" fill-rule="evenodd"/><path d="M241 72 269 72 269 100 241 100Z" stroke="#E8C48E" stroke-width="2" fill="#FFF9EB" fill-rule="evenodd"/><path d="M269 72 297 72 297 100 269 100Z" stroke="#E8C48E" stroke-width="2" fill="#FFF9EB" fill-rule="evenodd"/><path d="M297 72 325 72 325 100 297 100Z" stroke="#E8C48E" stroke-width="2" fill="#FFF9EB" fill-rule="evenodd"/><path d="M325 72 353 72 353 100 325 100Z" stroke="#E8C48E" stroke-width="2" fill="#FFF9EB" fill-rule="evenodd"/><path d="M352 72 380 72 380 100 352 100Z" stroke="#E8C48E" stroke-width="2" fill="#FFF9EB" fill-rule="evenodd"/><path d="M380 72 408 72 408 100 380 100Z" stroke="#E8C48E" stroke-width="2" fill="#FFF9EB" fill-rule="evenodd"/><path d="M408 72 436 72 436 100 408 100Z" stroke="#E8C48E" stroke-width="2" fill="#FFF9EB" fill-rule="evenodd"/><path d="M436 72 464 72 464 100 436 100Z" stroke="#E8C48E" stroke-width="2" fill="#FFF9EB" fill-rule="evenodd"/><path d="M464 72 492 72 492 100 464 100Z" stroke="#E8C48E" stroke-width="2" fill="#FFF9EB" fill-rule="evenodd"/><path d="M492 72 520 72 520 100 492 100Z" stroke="#E8C48E" stroke-width="2" fill="#FFF9EB" fill-rule="evenodd"/><path d="M520 72 548 72 548 100 520 100Z" stroke="#E8C48E" stroke-width="2" fill="#FFF9EB" fill-rule="evenodd"/><path d="M548 72 576 72 576 100 548 100Z" stroke="#E8C48E" stroke-width="2" fill="#FFF9EB" fill-rule="evenodd"/><path d="M126 116 185 116 185 144 126 144Z" stroke="#E8C48E" stroke-width="2" fill="#FFF9EB" fill-rule="evenodd"/><path d="M21 116 128 116 128 144 21 144Z" stroke="#E8C48E" stroke-width="2" fill="#FFF9EB" fill-rule="evenodd"/><path d="M185 116 241 116 241 144 185 144Z" stroke="#E8C48E" stroke-width="2" fill="#FFF9EB" fill-rule="evenodd"/><path d="M241 116 297 116 297 144 241 144Z" stroke="#E8C48E" stroke-width="2" fill="#FFF9EB" fill-rule="evenodd"/><text font-family="Arial,Arial_MSFontService,sans-serif" font-weight="400" font-size="14" transform="translate(166.8 89)">1<tspan font-size="14" x="-27" y="0">0</tspan><tspan font-size="14" x="-14" y="45">0</tspan><tspan font-size="14" x="98" y="45">2</tspan><tspan font-size="14" x="43" y="45">1</tspan></text><path d="M297 116 353 116 353 144 297 144Z" stroke="#E8C48E" stroke-width="2" fill="#FFF9EB" fill-rule="evenodd"/><text font-family="Arial,Arial_MSFontService,sans-serif" font-weight="400" font-size="14" transform="translate(320.8 134)">3</text><path d="M352 116 408 116 408 144 352 144Z" stroke="#E8C48E" stroke-width="2" fill="#FFF9EB" fill-rule="evenodd"/><path d="M408 116 464 116 464 144 408 144Z" stroke="#E8C48E" stroke-width="2" fill="#FFF9EB" fill-rule="evenodd"/><path d="M464 116 520 116 520 144 464 144Z" stroke="#E8C48E" stroke-width="2" fill="#FFF9EB" fill-rule="evenodd"/><path d="M520 116 576 116 576 144 520 144Z" stroke="#E8C48E" stroke-width="2" fill="#FFF9EB" fill-rule="evenodd"/><text font-family="Arial,Arial_MSFontService,sans-serif" font-weight="400" font-size="14" transform="translate(194.8 89)">2<tspan font-size="14" x="28" y="0">3</tspan><tspan font-size="14" x="56" y="0">4</tspan><tspan font-size="14" x="84" y="0">5</tspan><tspan font-size="14" x="112" y="0">6</tspan><tspan font-size="14" x="140" y="0">7</tspan><tspan font-size="14" x="167" y="0">8</tspan><tspan font-size="14" x="195" y="0">9</tspan><tspan font-size="14" x="218.8" y="0">10</tspan><tspan font-size="14" x="245.8" y="0">11</tspan><tspan font-size="14" x="274.8" y="0">12</tspan><tspan font-size="14" x="302.8" y="0">13</tspan><tspan font-size="14" x="330.8" y="0">14</tspan><tspan font-size="14" x="358.8" y="0">15</tspan><tspan font-size="14" x="180" y="45">4</tspan><tspan font-size="14" x="236" y="45">5</tspan><tspan font-size="14" x="292" y="45">6</tspan><tspan font-size="14" x="349" y="45">7</tspan></text><path d="M125 160 241 160 241 188 125 188Z" stroke="#E8C48E" stroke-width="2" fill="#FFF9EB" fill-rule="evenodd"/><path d="M21 160 127 160 127 188 21 188Z" stroke="#E8C48E" stroke-width="2" fill="#FFF9EB" fill-rule="evenodd"/><path d="M241 160 353 160 353 188 241 188Z" stroke="#E8C48E" stroke-width="2" fill="#FFF9EB" fill-rule="evenodd"/><text font-family="Arial,Arial_MSFontService,sans-serif" font-weight="400" font-size="14" transform="translate(180.8 178)">0<tspan font-size="14" x="111" y="0">1</tspan></text><path d="M352 160 464 160 464 188 352 188Z" stroke="#E8C48E" stroke-width="2" fill="#FFF9EB" fill-rule="evenodd"/><path d="M464 160 576 160 576 188 464 188Z" stroke="#E8C48E" stroke-width="2" fill="#FFF9EB" fill-rule="evenodd"/><text font-family="Arial,Arial_MSFontService,sans-serif" font-weight="400" font-size="14" transform="translate(403.8 178)">2<tspan font-size="14" x="113" y="0">3</tspan></text><path d="M126 204 353 204 353 232 126 232Z" stroke="#E8C48E" stroke-width="2" fill="#FFF9EB" fill-rule="evenodd"/><text font-family="Arial,Arial_MSFontService,sans-serif" font-weight="400" font-size="14" transform="translate(237.8 222)">0</text><path d="M352 204 576 204 576 232 352 232Z" stroke="#E8C48E" stroke-width="2" fill="#FFF9EB" fill-rule="evenodd"/><text font-family="Arial,Arial_MSFontService,sans-serif" font-weight="400" font-size="14" transform="translate(458.8 221)">1<tspan font-size="14" x="-337.1" y="-183">new ArrayBuffer</tspan><tspan font-size="14" x="-237.1" y="-183">(</tspan>16)<tspan font-size="14" x="-430.5" y="-88">Uint</tspan>16Array</text><path d="M21 72 128 72 128 100 21 100Z" stroke="#E8C48E" stroke-width="2" fill="#FFF9EB" fill-rule="evenodd"/><text font-family="Arial,Arial_MSFontService,sans-serif" font-weight="400" font-size="14" transform="translate(32.5 89)">Uint8Array<tspan font-size="14" x="-5.2" y="88">Uint</tspan>32<tspan font-size="14" x="34.8" y="88">Array</tspan></text><path d="M21 204 127 204 127 232 21 232Z" stroke="#E8C48E" stroke-width="2" fill="#FFF9EB" fill-rule="evenodd"/><text font-family="Arial,Arial_MSFontService,sans-serif" font-weight="400" font-size="14" transform="translate(23.1 221)">Float<tspan font-size="14" x="32" y="0">64</tspan>Array</text></g></svg>