<?xml version="1.0" encoding="UTF-8" standalone="no"?>
<svg
   xmlns:dc="http://purl.org/dc/elements/1.1/"
   xmlns:cc="http://creativecommons.org/ns#"
   xmlns:rdf="http://www.w3.org/1999/02/22-rdf-syntax-ns#"
   xmlns:svg="http://www.w3.org/2000/svg"
   xmlns="http://www.w3.org/2000/svg"
   xmlns:sodipodi="http://sodipodi.sourceforge.net/DTD/sodipodi-0.dtd"
   xmlns:inkscape="http://www.inkscape.org/namespaces/inkscape"
   id="svg8"
   version="1.1"
   viewBox="0 0 291.70311 45.640626"
   sodipodi:docname="hellojs-dark-logo-pro.svg"
   inkscape:version="0.92.4 (5da689c313, 2019-01-14)"
   inkscape:export-filename="C:\Users\eluge\OneDrive\Documents\Coding\My Webs\hello-javascript\static\img\hello-javascript-logo-dark-plain.png"
   inkscape:export-xdpi="96"
   inkscape:export-ydpi="96">
  <sodipodi:namedview
     pagecolor="#ffffff"
     bordercolor="#666666"
     borderopacity="1"
     objecttolerance="10"
     gridtolerance="10"
     guidetolerance="10"
     inkscape:pageopacity="0"
     inkscape:pageshadow="2"
     inkscape:window-width="1920"
     inkscape:window-height="1017"
     id="namedview24"
     showgrid="false"
     inkscape:zoom="1.8368742"
     inkscape:cx="271.20613"
     inkscape:cy="89.68851"
     inkscape:window-x="1912"
     inkscape:window-y="-8"
     inkscape:window-maximized="1"
     inkscape:current-layer="g3925" />
  <defs
     id="defs2" />
  <metadata
     id="metadata5">
    <rdf:RDF>
      <cc:Work
         rdf:about="">
        <dc:format>image/svg+xml</dc:format>
        <dc:type
           rdf:resource="http://purl.org/dc/dcmitype/StillImage" />
        <dc:title></dc:title>
      </cc:Work>
    </rdf:RDF>
  </metadata>
  <g
     transform="translate(0,-251.35937)"
     id="layer1">
    <g
       transform="translate(-3.8848303,83.928903)"
       id="g3925">
      <g
         aria-label="JS"
         transform="scale(1.03894,0.96251949)"
         style="font-style:normal;font-variant:normal;font-weight:bold;font-stretch:normal;font-size:35.32287979px;line-height:1.25;font-family:'Bebas Neue';-inkscape-font-specification:'Bebas Neue Bold';letter-spacing:0px;word-spacing:0px;fill:#000000;fill-opacity:1;stroke:none;stroke-width:0.18397333"
         id="text165">
        <path
           d="m 17.252289,205.53751 q 0.422932,0.0352 1.339286,0.0352 1.057331,0 1.621241,-0.49342 0.599154,-0.52867 0.599154,-1.86795 v -18.8205 h 3.876881 v 18.53854 q 0,6.20301 -5.568611,6.20301 -1.233553,0 -1.867951,-0.0705 z"
           style="font-size:35.24436951px;fill:#ffffff;stroke-width:0.18397333"
           id="path151" />
        <path
           d="m 26.833801,190.31195 q 0,-2.99578 1.445019,-4.58177 1.445019,-1.62124 4.264569,-1.62124 2.819549,0 4.264568,1.62124 1.445019,1.58599 1.445019,4.58177 v 0.77537 h -3.665414 v -1.02208 q 0,-1.2688 -0.493421,-1.83271 -0.493421,-0.59916 -1.445019,-0.59916 -0.951598,0 -1.445019,0.59916 -0.493422,0.56391 -0.493422,1.83271 0,1.55075 0.810621,2.71381 0.845865,1.16307 2.50235,2.64333 1.37453,1.2688 2.220395,2.25564 0.845865,0.9516 1.44502,2.32613 0.599154,1.37453 0.599154,3.13675 0,2.99577 -1.480264,4.61701 -1.480263,1.586 -4.299813,1.586 -2.819549,0 -4.299813,-1.586 -1.480263,-1.62124 -1.480263,-4.61701 v -1.51551 h 3.665414 v 1.76222 q 0,2.39661 2.008929,2.39661 2.008929,0 2.008929,-2.39661 0,-1.55076 -0.845865,-2.71382 -0.81062,-1.16306 -2.467106,-2.64333 -1.37453,-1.26879 -2.220395,-2.22039 -0.845865,-0.98684 -1.445019,-2.36138 -0.599154,-1.37453 -0.599154,-3.13674 z"
           style="font-size:35.24436951px;fill:#ffffff;stroke-width:0.18397333"
           id="path153" />
      </g>
      <g
         aria-label="HelloJavaScript"
         transform="scale(1.03894,0.96251949)"
         style="font-style:normal;font-variant:normal;font-weight:bold;font-stretch:normal;font-size:37.64071655px;line-height:1.25;font-family:'Bebas Neue';-inkscape-font-specification:'Bebas Neue Bold';letter-spacing:0px;word-spacing:0px;fill:#ffcc00;fill-opacity:1;stroke:none;stroke-width:0.1960454"
         id="text169">
        <path
           d="m 58.006311,208.97508 v -26.28994 h 4.131276 v 11.26712 h 4.694632 v -11.26712 h 4.20639 v 26.28994 h -4.20639 v -11.26711 h -4.694632 v 11.26711 z"
           style="font-size:37.55705643px;letter-spacing:0.34751001px;fill:#ffcc00;stroke-width:0.1960454"
           id="path106" />
        <path
           d="m 84.220655,193.76447 v 3.75571 H 78.54954 v 7.6992 h 7.13584 v 3.7557 H 74.418264 V 182.68514 H 85.68538 v 3.75571 h -7.13584 v 7.32362 z"
           style="font-size:37.55705643px;letter-spacing:0.34751001px;fill:#ffcc00;stroke-width:0.1960454"
           id="path108" />
        <path
           d="m 92.687533,182.68514 v 22.53424 h 6.797827 v 3.7557 H 88.556256 v -26.28994 z"
           style="font-size:37.55705643px;letter-spacing:0.34751001px;fill:#ffcc00;stroke-width:0.1960454"
           id="path110" />
        <path
           d="m 105.79857,182.68514 v 22.53424 h 6.79783 v 3.7557 h -10.92911 v -26.28994 z"
           style="font-size:37.55705643px;letter-spacing:0.34751001px;fill:#ffcc00;stroke-width:0.1960454"
           id="path112" />
        <path
           d="m 114.44032,188.99473 q 0,-3.15479 1.61496,-4.88242 1.61495,-1.72762 4.65707,-1.72762 3.04212,0 4.65708,1.72762 1.61495,1.72763 1.61495,4.88242 v 13.67077 q 0,3.15479 -1.61495,4.88241 -1.61496,1.72763 -4.65708,1.72763 -3.04212,0 -4.65707,-1.72763 -1.61496,-1.72762 -1.61496,-4.88241 z m 4.13128,13.93367 q 0,2.59143 2.14075,2.59143 2.14075,0 2.14075,-2.59143 v -14.19657 q 0,-2.59144 -2.14075,-2.59144 -2.14075,0 -2.14075,2.59144 z"
           style="font-size:37.55705643px;letter-spacing:0.34751001px;fill:#ffcc00;stroke-width:0.1960454"
           id="path114" />
        <path
           d="m 128.88992,205.21938 q 0.45069,0.0376 1.42717,0.0376 1.12671,0 1.72762,-0.52579 0.63847,-0.56336 0.63847,-1.99053 v -20.05547 h 4.13128 v 19.75501 q 0,6.61005 -5.93401,6.61005 -1.3145,0 -1.99053,-0.0751 z"
           style="fill:#ffffff;stroke-width:0.1960454"
           id="path116" />
        <path
           d="m 149.17494,208.97508 -0.71358,-4.76974 h -5.0702 l -0.71359,4.76974 h -3.79326 l 4.20639,-26.28994 h 6.04669 l 4.20639,26.28994 z m -1.27694,-8.33766 -1.99052,-13.2952 -1.99052,13.2952 z"
           style="fill:#ffffff;stroke-width:0.1960454"
           id="path118" />
        <path
           d="m 164.0142,182.68514 h 3.79326 l -4.05616,26.28994 h -6.15936 l -4.05616,-26.28994 h 4.16883 l 3.15479,21.44508 z"
           style="fill:#ffffff;stroke-width:0.1960454"
           id="path120" />
        <path
           d="m 178.33117,208.97508 -0.71358,-4.76974 h -5.0702 l -0.71359,4.76974 h -3.79326 l 4.20639,-26.28994 h 6.04668 l 4.2064,26.28994 z m -1.27694,-8.33766 -1.99052,-13.2952 -1.99053,13.2952 z"
           style="fill:#ffffff;stroke-width:0.1960454"
           id="path122" />
        <path
           d="m 184.20896,188.99473 q 0,-3.19235 1.53984,-4.88242 1.53984,-1.72762 4.5444,-1.72762 3.00457,0 4.54441,1.72762 1.53984,1.69007 1.53984,4.88242 v 0.82625 h -3.90594 v -1.08915 q 0,-1.35206 -0.5258,-1.95297 -0.5258,-0.63847 -1.53984,-0.63847 -1.01404,0 -1.53984,0.63847 -0.5258,0.60091 -0.5258,1.95297 0,1.65251 0.86382,2.89189 0.90137,1.23939 2.66655,2.81678 1.46472,1.35206 2.36609,2.40365 0.90137,1.01404 1.53984,2.47877 0.63847,1.46472 0.63847,3.34258 0,3.19235 -1.57739,4.91997 -1.5774,1.69007 -4.58197,1.69007 -3.00456,0 -4.58196,-1.69007 -1.57739,-1.72762 -1.57739,-4.91997 v -1.61496 h 3.90593 v 1.87786 q 0,2.55388 2.14075,2.55388 2.14076,0 2.14076,-2.55388 0,-1.65251 -0.90137,-2.8919 -0.86382,-1.23938 -2.629,-2.81678 -1.46472,-1.35205 -2.36609,-2.36609 -0.90137,-1.0516 -1.53984,-2.51632 -0.63847,-1.46473 -0.63847,-3.34258 z"
           style="fill:#ffffff;stroke-width:0.1960454"
           id="path124" />
        <path
           d="m 211.07351,202.6655 q 0,3.19235 -1.57739,4.91997 -1.5774,1.69007 -4.58196,1.69007 -3.00457,0 -4.58196,-1.69007 -1.5774,-1.72762 -1.5774,-4.91997 v -13.67077 q 0,-3.19235 1.5774,-4.88242 1.57739,-1.72762 4.58196,-1.72762 3.00456,0 4.58196,1.72762 1.57739,1.69007 1.57739,4.88242 v 2.55388 h -3.90593 v -2.81678 q 0,-2.59144 -2.14075,-2.59144 -2.14075,0 -2.14075,2.59144 v 14.19657 q 0,2.55388 2.14075,2.55388 2.14075,0 2.14075,-2.55388 v -3.75571 h 3.90593 z"
           style="fill:#ffffff;stroke-width:0.1960454"
           id="path126" />
        <path
           d="m 222.60246,208.97508 q -0.22535,-0.63847 -0.30046,-1.20182 -0.0751,-0.56336 -0.0751,-2.02808 v -4.13128 q 0,-1.80274 -0.63847,-2.55388 -0.63847,-0.7887 -2.06564,-0.7887 h -1.42717 v 10.70376 h -4.13128 v -26.28994 h 6.23448 q 3.19234,0 4.65707,1.50229 1.46473,1.46472 1.46473,4.5444 v 2.06564 q 0,4.05616 -2.70411,5.3331 1.46472,0.60091 2.10319,2.02808 0.63847,1.38961 0.63847,3.56792 v 4.05616 q 0,1.12671 0.0751,1.8403 0.0751,0.67603 0.37557,1.35205 z m -4.50685,-14.45946 h 1.61495 q 1.23939,0 1.8403,-0.63847 0.63847,-0.63847 0.63847,-2.14076 v -2.59143 q 0,-1.42717 -0.5258,-2.06564 -0.48824,-0.63847 -1.5774,-0.63847 h -1.99052 z"
           style="fill:#ffffff;stroke-width:0.1960454"
           id="path128" />
        <path
           d="m 233.55397,182.68514 v 26.28994 h -4.13128 v -26.28994 z"
           style="fill:#ffffff;stroke-width:0.1960454"
           id="path130" />
        <path
           d="m 242.96975,182.68514 q 3.07968,0 4.61952,1.65251 1.53984,1.65251 1.53984,4.84486 v 3.4177 q 0,3.19235 -1.53984,4.84486 -1.53984,1.65251 -4.61952,1.65251 h -1.95297 v 9.8775 h -4.13127 v -26.28994 z m -1.95297,12.65673 h 1.95297 q 1.01404,0 1.50228,-0.56335 0.5258,-0.56336 0.5258,-1.91541 v -3.9435 q 0,-1.35205 -0.5258,-1.91541 -0.48824,-0.56335 -1.50228,-0.56335 h -1.95297 z"
           style="fill:#ffffff;stroke-width:0.1960454"
           id="path132" />
        <path
           d="m 262.95784,182.68514 v 3.75571 h -4.31906 v 22.53423 h -4.13128 v -22.53423 h -4.31906 v -3.75571 z"
           style="fill:#ffffff;stroke-width:0.1960454"
           id="path134" />
      </g>
      <g
         aria-label=".info?"
         transform="scale(1.1523164,0.8678172)"
         style="font-style:normal;font-variant:normal;font-weight:bold;font-stretch:normal;font-size:10.85937309px;line-height:1.25;font-family:'Bebas Neue';-inkscape-font-specification:'Bebas Neue Bold';letter-spacing:0.34751004px;word-spacing:0px;fill:#ffcc00;fill-opacity:1;stroke:none;stroke-width:0.05655923"
         id="text173">
        <path
           d="m 235.82589,231.64972 h -1.1511 v -1.15109 h 1.1511 z"
           style="letter-spacing:0.34751004px;fill:#ffcc00;stroke-width:0.05655923"
           id="path137" />
        <path
           d="m 238.23176,224.04816 v 7.60156 h -1.19453 v -7.60156 z"
           style="letter-spacing:0.34751004px;fill:#ffcc00;stroke-width:0.05655923"
           id="path139" />
        <path
           d="m 240.5063,231.64972 h -1.07508 v -7.60156 h 1.49859 l 1.22711,4.55008 v -4.55008 h 1.06422 v 7.60156 h -1.22711 l -1.48773,-5.5057 z"
           style="letter-spacing:0.34751004px;fill:#ffcc00;stroke-width:0.05655923"
           id="path141" />
        <path
           d="m 247.17108,227.42542 v 1.08594 h -1.54203 v 3.13836 h -1.19454 v -7.60156 h 3.16008 v 1.08594 h -1.96554 v 2.29132 z"
           style="letter-spacing:0.34751004px;fill:#ffcc00;stroke-width:0.05655923"
           id="path143" />
        <path
           d="m 248.4172,225.87253 q 0,-0.91218 0.46695,-1.41172 0.46696,-0.49953 1.34656,-0.49953 0.87961,0 1.34657,0.49953 0.46695,0.49954 0.46695,1.41172 v 3.95281 q 0,0.91219 -0.46695,1.41172 -0.46696,0.49953 -1.34657,0.49953 -0.8796,0 -1.34656,-0.49953 -0.46695,-0.49953 -0.46695,-1.41172 z m 1.19453,4.02883 q 0,0.7493 0.61898,0.7493 0.61899,0 0.61899,-0.7493 v -4.10484 q 0,-0.7493 -0.61899,-0.7493 -0.61898,0 -0.61898,0.7493 z"
           style="letter-spacing:0.34751004px;fill:#ffcc00;stroke-width:0.05655923"
           id="path145" />
        <path
           d="m 254.03677,229.96652 q -0.0652,-0.19547 -0.0652,-0.46696 0,-0.54297 0.15203,-0.90132 0.16289,-0.36922 0.46695,-0.81446 0.33664,-0.51039 0.51039,-0.92304 0.17375,-0.41266 0.17375,-1.06422 0,-0.39094 -0.15203,-0.56469 -0.15203,-0.18461 -0.44523,-0.18461 -0.2932,0 -0.44524,0.18461 -0.15203,0.17375 -0.15203,0.56469 v 0.82531 h -1.12937 v -0.7493 q 0,-0.92304 0.44523,-1.41172 0.44524,-0.49953 1.31399,-0.49953 0.86875,0 1.31398,0.49953 0.44524,0.48868 0.44524,1.41172 0,0.71672 -0.20633,1.18367 -0.20633,0.46696 -0.59727,0.99907 -0.31492,0.43437 -0.46695,0.74929 -0.14117,0.31493 -0.14117,0.73844 0,0.23891 0.0434,0.42352 z m 1.09679,1.6832 h -1.15109 v -1.15109 h 1.15109 z"
           style="letter-spacing:0.34751004px;fill:#ffcc00;stroke-width:0.05655923"
           id="path147" />
      </g>
      <path
         inkscape:connector-curvature="0"
         style="opacity:1;fill:none;fill-opacity:1;stroke:#ffcc00;stroke-width:2.62684751"
         d="m 8.7721758,183.07251 a 21.323971,21.323971 0 0 1 20.0794492,-14.1457 21.323971,21.323971 0 0 1 21.323968,21.32397 v 0 A 21.323971,21.323971 0 0 1 28.851625,211.57475 21.323971,21.323971 0 0 1 8.2932321,195.91331"
         id="path3910" />
      <path
         style="opacity:1;fill:#ffffff;fill-opacity:1;stroke:none;stroke-width:0.10253484;stroke-opacity:1"
         d="m 9.9943709,189.48335 a 3.0276628,3.0276628 0 0 1 -3.0276627,3.02767 3.0276628,3.0276628 0 0 1 -3.0276628,-3.02767 3.0276628,3.0276628 0 0 1 3.0276628,-3.02766 3.0276628,3.0276628 0 0 1 3.0276627,3.02766 z"
         id="path3914" />
    </g>
  </g>
</svg>
