<?xml version="1.0" encoding="UTF-8" standalone="no"?>
<!-- Generator: Adobe Illustrator 19.0.0, SVG Export Plug-In . SVG Version: 6.00 Build 0)  -->

<svg
   xmlns:dc="http://purl.org/dc/elements/1.1/"
   xmlns:cc="http://creativecommons.org/ns#"
   xmlns:rdf="http://www.w3.org/1999/02/22-rdf-syntax-ns#"
   xmlns:svg="http://www.w3.org/2000/svg"
   xmlns="http://www.w3.org/2000/svg"
   xmlns:sodipodi="http://sodipodi.sourceforge.net/DTD/sodipodi-0.dtd"
   xmlns:inkscape="http://www.inkscape.org/namespaces/inkscape"
   version="1.1"
   id="Layer_1"
   x="0px"
   y="0px"
   viewBox="0 0 20 20"
   xml:space="preserve"
   sodipodi:docname="light-bulb-svgrepo-com.svg"
   width="20"
   height="20"
   inkscape:version="0.92.4 (5da689c313, 2019-01-14)"><metadata
   id="metadata77"><rdf:RDF><cc:Work
       rdf:about=""><dc:format>image/svg+xml</dc:format><dc:type
         rdf:resource="http://purl.org/dc/dcmitype/StillImage" /><dc:title /></cc:Work></rdf:RDF></metadata><defs
   id="defs75" /><sodipodi:namedview
   pagecolor="#ffffff"
   bordercolor="#666666"
   borderopacity="1"
   objecttolerance="10"
   gridtolerance="10"
   guidetolerance="10"
   inkscape:pageopacity="0"
   inkscape:pageshadow="2"
   inkscape:window-width="1920"
   inkscape:window-height="1017"
   id="namedview73"
   showgrid="false"
   inkscape:zoom="5.2149125"
   inkscape:cx="38.198484"
   inkscape:cy="-42.662949"
   inkscape:window-x="1912"
   inkscape:window-y="-8"
   inkscape:window-maximized="1"
   inkscape:current-layer="Layer_1" />
<g
   id="g99"
   transform="translate(-3.5988422,1.3399449)"><g
     id="g40"
     transform="matrix(0.03426883,0,0,0.03426883,1.1344872,0.77095687)">
	<path
   inkscape:connector-curvature="0"
   id="path2"
   d="M 416.28,155.16 C 407.747,78.36 346.307,16.92 269.507,8.387 265.24,8.387 260.12,7.534 255,7.534 c -5.12,0 -9.387,0 -14.507,0.853 -76.8,8.533 -138.24,70.827 -146.773,146.773 -5.973,54.613 14.507,104.107 50.347,138.24 20.48,19.627 37.547,45.227 42.667,72.533 h 136.533 c 5.12,-27.307 22.187,-52.907 42.667,-72.533 35.839,-34.133 56.319,-83.627 50.346,-138.24"
   style="fill:#ffdd09" />
	<path
   inkscape:connector-curvature="0"
   id="path4"
   d="M 416.28,155.16 C 407.747,78.36 346.307,16.92 269.507,8.387 265.24,7.533 260.12,7.533 255,7.533 c -4.267,0 -8.533,0 -12.8,0.853 0.853,0 1.707,0 1.707,0 75.946,8.534 138.24,69.974 146.773,146.774 5.973,54.613 -14.507,104.107 -50.347,138.24 -20.48,19.627 -37.547,45.227 -42.667,72.533 h 25.6 c 5.12,-27.307 22.187,-52.907 42.667,-72.533 35.84,-34.133 56.32,-83.627 50.347,-138.24"
   style="fill:#fd9808" />
	<path
   inkscape:connector-curvature="0"
   id="path6"
   d="m 93.72,155.16 c 8.533,-76.8 69.973,-138.24 146.773,-146.773 5.12,0 9.387,-0.853 14.507,-0.853 4.267,0 8.533,0 12.8,0.853 -0.853,0 -1.707,0 -1.707,0 -75.946,8.533 -138.24,69.973 -146.773,146.773 -5.973,54.613 14.507,104.107 50.347,138.24 20.48,19.627 37.547,45.227 42.667,72.533 h -25.6 C 181.614,338.626 164.547,313.026 144.067,293.4 108.227,259.267 87.747,209.773 93.72,155.16"
   style="fill:#ffffff" />
	<path
   inkscape:connector-curvature="0"
   id="path8"
   d="m 186.733,365.933 v 102.4 h 136.533 v -68.267 -34.133 z"
   style="fill:#ffdd09" />
	<path
   inkscape:connector-curvature="0"
   id="path10"
   d="m 297.667,468.333 h 25.6 v -102.4 h -25.6 z"
   style="fill:#fd9808" />
	<path
   inkscape:connector-curvature="0"
   id="path12"
   d="m 186.733,468.333 h 25.6 v -102.4 h -25.6 z"
   style="fill:#ffffff" />
	<path
   inkscape:connector-curvature="0"
   id="path14"
   d="m 267.8,502.467 h -25.6 c -7.68,0 -15.36,-3.413 -20.48,-10.24 L 203.8,468.334 h 102.4 l -17.92,23.893 c -5.12,6.826 -11.947,10.24 -20.48,10.24"
   style="fill:#ffdd09" />
	<path
   inkscape:connector-curvature="0"
   id="path16"
   d="m 357.4,169.667 c 0,-56.32 -46.08,-102.4 -102.4,-102.4 -56.32,0 -102.4,46.08 -102.4,102.4 0,56.32 46.08,102.4 102.4,102.4 56.32,0 102.4,-46.08 102.4,-102.4"
   style="fill:#1cd759" />
	<path
   inkscape:connector-curvature="0"
   id="path18"
   d="m 331.8,169.667 c 0,-52.053 -39.253,-95.573 -89.6,-101.547 4.267,-0.853 8.533,-0.853 12.8,-0.853 56.32,0 102.4,46.08 102.4,102.4 0,56.32 -46.08,102.4 -102.4,102.4 -4.267,0 -8.533,0 -12.8,-0.853 50.347,-5.974 89.6,-49.494 89.6,-101.547"
   style="fill:#15a143" />
	<path
   inkscape:connector-curvature="0"
   id="path20"
   d="M 323.267,476.867 H 186.733 c -5.12,0 -8.533,-3.413 -8.533,-8.533 v -102.4 c 0,-5.12 3.413,-8.533 8.533,-8.533 h 136.533 c 5.12,0 8.533,3.413 8.533,8.533 v 102.4 c 0.001,5.119 -3.412,8.533 -8.532,8.533 z m -128,-17.067 H 314.734 V 374.467 H 195.267 Z" />
	<path
   inkscape:connector-curvature="0"
   id="path22"
   d="m 267.8,511 h -25.6 c -11.093,0 -20.48,-5.12 -27.307,-13.653 l -17.92,-23.893 c -1.707,-2.56 -2.56,-5.973 -0.853,-8.533 1.707,-2.56 4.267,-5.12 7.68,-5.12 h 102.4 c 3.413,0 5.973,1.707 7.68,5.12 1.707,2.56 0.853,5.973 -0.853,8.533 l -17.92,23.893 C 289.133,505.88 278.893,511 267.8,511 Z m -46.933,-34.133 7.68,10.24 c 3.413,4.267 8.533,6.827 13.653,6.827 h 25.6 c 5.12,0 10.24,-2.56 13.653,-6.827 l 7.68,-10.24 z" />
	<path
   inkscape:connector-curvature="0"
   id="path24"
   d="m 246.467,408.6 h -59.733 c -5.12,0 -8.533,-3.413 -8.533,-8.533 0,-5.12 3.413,-8.533 8.533,-8.533 h 59.733 c 5.12,0 8.533,3.413 8.533,8.533 0,5.12 -3.413,8.533 -8.533,8.533 z" />
	<path
   inkscape:connector-curvature="0"
   id="path26"
   d="m 323.267,442.733 h -59.733 c -5.12,0 -8.533,-3.413 -8.533,-8.533 0,-5.12 3.413,-8.533 8.533,-8.533 h 59.733 c 5.12,0 8.533,3.413 8.533,8.533 0,5.12 -3.413,8.533 -8.533,8.533 z" />
	<path
   inkscape:connector-curvature="0"
   id="path28"
   d="m 323.267,408.6 h -34.133 c -5.12,0 -8.533,-3.413 -8.533,-8.533 0,-5.12 3.413,-8.533 8.533,-8.533 h 34.133 c 5.12,0 8.533,3.413 8.533,8.533 0,5.12 -3.413,8.533 -8.533,8.533 z" />
	<path
   inkscape:connector-curvature="0"
   id="path30"
   d="m 220.867,442.733 h -34.133 c -5.12,0 -8.533,-3.413 -8.533,-8.533 0,-5.12 3.413,-8.533 8.533,-8.533 h 34.133 c 5.12,0 8.533,3.413 8.533,8.533 0,5.12 -3.413,8.533 -8.533,8.533 z" />
	<path
   inkscape:connector-curvature="0"
   id="path32"
   d="M 323.267,374.467 H 186.733 c -4.267,0 -7.68,-2.56 -8.533,-6.827 C 173.08,344.6 159.427,320.707 138.093,300.227 98.84,262.68 79.213,208.92 85.186,154.307 93.72,74.093 158.573,9.24 238.787,-0.147 243.907,-0.147 249.027,-1 255,-1 c 5.973,0 11.093,0.853 16.213,0.853 80.213,8.533 145.067,73.387 153.6,154.453 v 0 c 5.973,54.613 -13.653,107.52 -52.907,145.92 -21.333,20.48 -35.84,44.373 -40.107,67.413 -0.852,4.268 -4.266,6.828 -8.532,6.828 z M 193.56,357.4 h 122.88 c 6.827,-24.747 22.187,-48.64 43.52,-69.973 35.84,-34.133 52.907,-81.92 47.787,-131.413 v 0 c -7.68,-72.533 -66.56,-130.56 -139.093,-139.093 -4.267,0 -8.533,-0.853 -13.653,-0.853 -5.12,0 -9.387,0.853 -13.653,0.853 -72.533,8.533 -130.56,66.56 -139.093,139.093 -5.12,49.493 11.947,97.28 47.787,131.413 21.331,21.333 36.691,45.226 43.518,69.973 z" />
	<path
   inkscape:connector-curvature="0"
   id="path34"
   d="m 255,280.6 c -61.44,0 -110.933,-49.493 -110.933,-110.933 0,-61.44 49.493,-110.934 110.933,-110.934 61.44,0 110.933,49.493 110.933,110.933 0,61.44 -49.493,110.934 -110.933,110.934 z m 0,-204.8 c -51.2,0 -93.867,41.813 -93.867,93.867 0,52.054 41.813,93.867 93.867,93.867 52.054,0 93.867,-41.813 93.867,-93.867 C 348.867,117.613 307.053,75.8 255,75.8 Z" />
	<path
   inkscape:connector-curvature="0"
   id="path36"
   d="m 246.467,220.867 c -2.56,0 -4.267,-0.853 -5.973,-2.56 l -34.133,-34.133 c -3.413,-3.413 -3.413,-8.533 0,-11.947 3.413,-3.414 8.533,-3.413 11.947,0 l 34.133,34.133 c 3.413,3.413 3.413,8.533 0,11.947 -1.708,1.706 -3.414,2.56 -5.974,2.56 z" />
	<path
   inkscape:connector-curvature="0"
   id="path38"
   d="m 246.467,220.867 c -1.707,0 -3.413,-0.853 -5.12,-1.707 -3.413,-2.56 -4.267,-8.533 -1.707,-11.947 l 59.733,-76.8 c 2.56,-3.413 8.533,-4.267 11.947,-1.707 3.413,2.56 4.267,8.533 1.707,11.947 l -59.733,76.8 c -1.707,2.56 -4.267,3.414 -6.827,3.414 z" />
</g></g>
<g
   id="g42"
   transform="translate(0,-492)">
</g>
<g
   id="g44"
   transform="translate(0,-492)">
</g>
<g
   id="g46"
   transform="translate(0,-492)">
</g>
<g
   id="g48"
   transform="translate(0,-492)">
</g>
<g
   id="g50"
   transform="translate(0,-492)">
</g>
<g
   id="g52"
   transform="translate(0,-492)">
</g>
<g
   id="g54"
   transform="translate(0,-492)">
</g>
<g
   id="g56"
   transform="translate(0,-492)">
</g>
<g
   id="g58"
   transform="translate(0,-492)">
</g>
<g
   id="g60"
   transform="translate(0,-492)">
</g>
<g
   id="g62"
   transform="translate(0,-492)">
</g>
<g
   id="g64"
   transform="translate(0,-492)">
</g>
<g
   id="g66"
   transform="translate(0,-492)">
</g>
<g
   id="g68"
   transform="translate(0,-492)">
</g>
<g
   id="g70"
   transform="translate(0,-492)">
</g>
</svg>