<svg width="624" height="74" xmlns="http://www.w3.org/2000/svg" xmlns:xlink="http://www.w3.org/1999/xlink" overflow="hidden"><defs><clipPath id="clip0"><rect x="0" y="0" width="624" height="74"/></clipPath></defs><g clip-path="url(#clip0)"><path d="M45.9387 28.7117 120.589 28.7117 120.589 59.3374 45.9387 59.3374Z" stroke="#E8C48E" stroke-width="1.91411" fill="#FFF9EB" fill-rule="evenodd" transform="scale(1 1.00416)"/><text fill="#8A704D" font-family="Arial,Arial_MSFontService,sans-serif" font-weight="400" font-size="14" transform="matrix(0.957055 0 0 0.961039 47.8528 19)">value<tspan font-size="14" x="32" y="30.1757">1</tspan></text><path d="M162.958 36.3681 176.357 43.0675 162.958 49.7669 162.957 44.0245 106.932 44.0245 106.932 42.1104 162.957 42.1104 162.958 36.3681Z" fill="#EE6B47" transform="scale(1 1.00416)"/><text fill="#EE6B47" font-family="Arial,Arial_MSFontService,sans-serif" font-weight="400" font-size="14" transform="matrix(0.957055 0 0 0.961039 130.16 33)">next</text><path d="M179.926 28.7117 254.577 28.7117 254.577 59.3374 179.926 59.3374Z" stroke="#E8C48E" stroke-width="1.91411" fill="#FFF9EB" fill-rule="evenodd" transform="scale(1 1.00416)"/><text fill="#8A704D" font-family="Arial,Arial_MSFontService,sans-serif" font-weight="400" font-size="14" transform="matrix(0.957055 0 0 0.961039 181.84 19)">value<tspan font-size="14" x="32" y="30.1757">2</tspan></text><path d="M296.945 36.3681 310.344 43.0675 296.945 49.7669 296.945 44.0245 240.92 44.0245 240.92 42.1104 296.945 42.1104 296.945 36.3681Z" fill="#EE6B47" transform="scale(1 1.00416)"/><text fill="#EE6B47" font-family="Arial,Arial_MSFontService,sans-serif" font-weight="400" font-size="14" transform="matrix(0.957055 0 0 0.961039 264.147 33)">next</text><path d="M312.957 28.7117 387.607 28.7117 387.607 59.3374 312.957 59.3374Z" stroke="#E8C48E" stroke-width="1.91411" fill="#FFF9EB" fill-rule="evenodd" transform="scale(1 1.00416)"/><text fill="#8A704D" font-family="Arial,Arial_MSFontService,sans-serif" font-weight="400" font-size="14" transform="matrix(0.957055 0 0 0.961039 314.871 19)">value<tspan font-size="14" x="32" y="30.1757">3</tspan></text><path d="M429.976 36.3681 443.375 43.0675 429.976 49.7669 429.976 44.0245 373.95 44.0245 373.95 42.1104 429.976 42.1104 429.976 36.3681Z" fill="#EE6B47" transform="scale(1 1.00416)"/><text fill="#EE6B47" font-family="Arial,Arial_MSFontService,sans-serif" font-weight="400" font-size="14" transform="matrix(0.957055 0 0 0.961039 397.178 33)">next</text><path d="M446.945 28.7117 521.595 28.7117 521.595 59.3374 446.945 59.3374Z" stroke="#E8C48E" stroke-width="1.91411" fill="#FFF9EB" fill-rule="evenodd" transform="scale(1 1.00416)"/><text fill="#8A704D" font-family="Arial,Arial_MSFontService,sans-serif" font-weight="400" font-size="14" transform="matrix(0.957055 0 0 0.961039 448.859 19)">value<tspan font-size="14" x="32" y="30.1757">4</tspan></text><path d="M563.964 36.3681 577.363 43.0675 563.964 49.7669 563.964 44.0245 507.938 44.0245 507.938 42.1104 563.964 42.1104 563.964 36.3681Z" fill="#EE6B47" transform="scale(1 1.00416)"/><text fill="#EE6B47" font-family="Arial,Arial_MSFontService,sans-serif" font-weight="400" font-size="14" transform="matrix(0.957055 0 0 0.961039 531.166 33)">next<tspan fill="#8A704D" font-size="14" x="55" y="14.5676">null</tspan><tspan fill="#8A704D" font-size="14" x="-545" y="14.5676">list</tspan></text></g></svg>