<?xml version="1.0" encoding="iso-8859-1"?>
<!-- Generator: Adobe Illustrator 19.0.0, SVG Export Plug-In . SVG Version: 6.00 Build 0)  -->
<svg version="1.1" id="Layer_1" xmlns="http://www.w3.org/2000/svg" xmlns:xlink="http://www.w3.org/1999/xlink" x="0px" y="0px"
	 viewBox="0 0 512 512" style="enable-background:new 0 0 512 512;" xml:space="preserve">
<g>
	<path style="fill:#E4EAF8;" d="M486.881,503.983H25.119c-9.446,0-17.102-7.656-17.102-17.102V332.96
		c0-9.446,7.656-17.102,17.102-17.102h461.762c9.446,0,17.102,7.656,17.102,17.102v153.921
		C503.983,496.326,496.326,503.983,486.881,503.983z"/>
	<path style="fill:#E4EAF8;" d="M486.881,230.347H25.119c-9.446,0-17.102-7.656-17.102-17.102V59.324
		c0-9.446,7.656-17.102,17.102-17.102h461.762c9.446,0,17.102,7.656,17.102,17.102v153.921
		C503.983,222.69,496.326,230.347,486.881,230.347z"/>
</g>
<g>
	<path style="fill:#D5DCED;" d="M213.244,230.347H25.119c-9.446,0-17.102-7.656-17.102-17.102V59.324
		c0-9.446,7.656-17.102,17.102-17.102H256v145.37C256,211.204,236.857,230.347,213.244,230.347z"/>
	<path style="fill:#D5DCED;" d="M213.244,503.983H25.119c-9.446,0-17.102-7.656-17.102-17.102V332.96
		c0-9.446,7.656-17.102,17.102-17.102H256v145.37C256,484.84,236.857,503.983,213.244,503.983z"/>
</g>
<path style="fill:#FF5050;" d="M213.244,196.142H59.324c-9.446,0-17.102-7.656-17.102-17.102V25.119
	c0-9.446,7.656-17.102,17.102-17.102h153.921c9.446,0,17.102,7.656,17.102,17.102V179.04
	C230.347,188.485,222.689,196.142,213.244,196.142z"/>
<path style="fill:#7DF5A5;" d="M213.244,469.779H59.324c-9.446,0-17.102-7.656-17.102-17.102V298.756
	c0-9.446,7.656-17.102,17.102-17.102h153.921c9.446,0,17.102,7.656,17.102,17.102v153.921
	C230.347,462.121,222.689,469.779,213.244,469.779z"/>
<path d="M486.881,307.841H238.363v-9.086c0-13.851-11.268-25.119-25.119-25.119h-68.944v-35.273h342.58
	c13.851,0,25.119-11.268,25.119-25.119V59.324c0-13.851-11.268-25.119-25.119-25.119H238.363v-9.086
	C238.363,11.268,227.095,0,213.244,0H59.324C45.473,0,34.205,11.268,34.205,25.119v9.086h-9.086C11.268,34.205,0,45.473,0,59.324
	v153.921c0,13.851,11.268,25.119,25.119,25.119h103.148v35.273H59.324c-13.851,0-25.119,11.268-25.119,25.119v9.086h-9.086
	C11.268,307.841,0,319.11,0,332.96v153.921C0,500.732,11.268,512,25.119,512h461.762C500.732,512,512,500.732,512,486.881V332.96
	C512,319.11,500.732,307.841,486.881,307.841z M486.881,50.238c5.01,0,9.086,4.076,9.086,9.086v153.921
	c0,5.01-4.076,9.086-9.086,9.086h-342.58v-18.171h68.944c13.851,0,25.119-11.268,25.119-25.119V50.238H486.881z M50.238,25.119
	c0-5.01,4.076-9.086,9.086-9.086h153.921c5.01,0,9.086,4.076,9.086,9.086V179.04c0,5.01-4.076,9.086-9.086,9.086H59.324
	c-5.01,0-9.086-4.076-9.086-9.086V25.119z M25.119,222.33c-5.01,0-9.086-4.076-9.086-9.086V59.324c0-5.01,4.076-9.086,9.086-9.086
	h9.086V179.04c0,13.851,11.268,25.119,25.119,25.119h68.944v18.171H25.119z M50.238,298.756c0-5.01,4.076-9.086,9.086-9.086h153.921
	c5.01,0,9.086,4.076,9.086,9.086v153.921c0,5.01-4.076,9.086-9.086,9.086H59.324c-5.01,0-9.086-4.076-9.086-9.086V298.756z
	 M495.967,486.881c0,5.01-4.076,9.086-9.086,9.086H25.119c-5.01,0-9.086-4.076-9.086-9.086V332.96c0-5.01,4.076-9.086,9.086-9.086
	h9.086v128.802c0,13.851,11.268,25.119,25.119,25.119h153.921c13.851,0,25.119-11.268,25.119-25.119V323.875h248.518
	c5.01,0,9.086,4.076,9.086,9.086V486.881z"/>
<path d="M136.284,161.403c11.111,0,21.392-3.597,29.761-9.675l7.326,7.326c1.565,1.565,3.617,2.348,5.668,2.348
	s4.103-0.782,5.668-2.348c3.131-3.131,3.131-8.207,0-11.337l-7.326-7.326c6.078-8.369,9.675-18.65,9.675-29.761V93.528
	c0-27.995-22.777-50.772-50.772-50.772S85.511,65.533,85.511,93.528v17.102C85.511,138.626,108.289,161.403,136.284,161.403z
	 M101.545,93.528c0-19.155,15.584-34.739,34.739-34.739s34.739,15.584,34.739,34.739v17.102c0,6.68-1.899,12.921-5.18,18.222
	l-6.789-6.789c-3.131-3.131-8.207-3.131-11.337,0c-3.131,3.131-3.131,8.207,0,11.337l6.789,6.789
	c-5.302,3.28-11.543,5.18-18.223,5.18c-19.155,0-34.739-15.584-34.739-34.739V93.528z"/>
<path d="M91.584,434.8c4.293,1.076,8.647-1.537,9.722-5.833l4.896-19.581h60.167l4.896,19.581c0.911,3.643,4.179,6.075,7.771,6.075
	c0.643,0,1.298-0.078,1.951-0.242c4.296-1.073,6.907-5.427,5.833-9.722l-23.225-92.899c-2.325-9.295-10.64-15.788-20.222-15.788
	h-14.175c-9.582,0-17.898,6.492-20.22,15.789L85.751,425.08C84.677,429.375,87.289,433.726,91.584,434.8z M124.529,336.069
	c0.537-2.145,2.455-3.643,4.667-3.643h14.175c2.212,0,4.13,1.497,4.667,3.643l14.321,57.284h-52.15L124.529,336.069z"/>
<path d="M273.102,92.994h153.921c4.427,0,8.017-3.589,8.017-8.017c0-4.427-3.589-8.017-8.017-8.017H273.102
	c-4.427,0-8.017,3.589-8.017,8.017C265.086,89.404,268.675,92.994,273.102,92.994z"/>
<path d="M273.102,161.403h188.125c4.427,0,8.017-3.589,8.017-8.017c0-4.427-3.589-8.017-8.017-8.017H273.102
	c-4.427,0-8.017,3.589-8.017,8.017C265.086,157.814,268.675,161.403,273.102,161.403z"/>
<path d="M273.102,195.608h188.125c4.427,0,8.017-3.589,8.017-8.017s-3.589-8.017-8.017-8.017H273.102
	c-4.427,0-8.017,3.589-8.017,8.017S268.675,195.608,273.102,195.608z"/>
<path d="M273.102,127.198h34.205c4.427,0,8.017-3.589,8.017-8.017c0-4.427-3.589-8.017-8.017-8.017h-34.205
	c-4.427,0-8.017,3.589-8.017,8.017C265.086,123.609,268.675,127.198,273.102,127.198z"/>
<path d="M333.495,119.182c0,4.427,3.589,8.017,8.017,8.017h119.716c4.427,0,8.017-3.589,8.017-8.017
	c0-4.427-3.589-8.017-8.017-8.017H341.511C337.084,111.165,333.495,114.754,333.495,119.182z"/>
<path d="M273.102,366.63h153.921c4.427,0,8.017-3.589,8.017-8.017c0-4.427-3.589-8.017-8.017-8.017H273.102
	c-4.427,0-8.017,3.589-8.017,8.017C265.086,363.041,268.675,366.63,273.102,366.63z"/>
<path d="M461.228,419.006H273.102c-4.427,0-8.017,3.589-8.017,8.017c0,4.427,3.589,8.017,8.017,8.017h188.125
	c4.427,0,8.017-3.589,8.017-8.017C469.244,422.596,465.655,419.006,461.228,419.006z"/>
<path d="M461.228,453.211H273.102c-4.427,0-8.017,3.589-8.017,8.017s3.589,8.017,8.017,8.017h188.125
	c4.427,0,8.017-3.589,8.017-8.017S465.655,453.211,461.228,453.211z"/>
<path d="M273.102,400.835h34.205c4.427,0,8.017-3.589,8.017-8.017c0-4.427-3.589-8.017-8.017-8.017h-34.205
	c-4.427,0-8.017,3.589-8.017,8.017C265.086,397.246,268.675,400.835,273.102,400.835z"/>
<path d="M461.228,384.802H341.511c-4.427,0-8.017,3.589-8.017,8.017c0,4.427,3.589,8.017,8.017,8.017h119.716
	c4.427,0,8.017-3.589,8.017-8.017C469.244,388.391,465.655,384.802,461.228,384.802z"/>
<g>
</g>
<g>
</g>
<g>
</g>
<g>
</g>
<g>
</g>
<g>
</g>
<g>
</g>
<g>
</g>
<g>
</g>
<g>
</g>
<g>
</g>
<g>
</g>
<g>
</g>
<g>
</g>
<g>
</g>
</svg>
